<?xml version="1.0" encoding="utf-8" ?>
<!-- Generator: Adobe Illustrator 23.0.0, SVG Export Plug-In . SVG Version: 6.00 Build 0)  -->
<svg version="1.1" id="Layer_1" xmlns="http://www.w3.org/2000/svg" xmlns:xlink="http://www.w3.org/1999/xlink" x="0px" y="0px" viewBox="0 0 1286 448" style="enable-background:new 0 0 1286 448;" xml:space="preserve">
	<style type="text/css">
	.st0{fill:#EE0C37;}
	.st1{fill:#ffffff;}
</style>
	<g class="st1">
		<path d="M16.48,356.73v70.86h39.31v16.65H0v-87.51H16.48z" />
		<path d="M125.56,427.11H97.83l-6.82,17.12H74.76l37.72-90.96h0.91l37.72,90.96h-19.09L125.56,427.11z M120.1,412.61l-8.07-21.28
		l-8.41,21.28H120.1z" />
		<path d="M219.75,444.23l-17.61-27.82h-11.02v27.82h-16.48v-87.51h25.34c10.38,0,18.42,2.64,24.15,7.91
		c5.72,5.27,8.58,12.47,8.58,21.58c0,5.39-1.08,10.44-3.24,15.16c-2.16,4.72-5.47,8.42-9.94,11.12l19.43,31.75H219.75z
		 M191.12,399.77h11.7c4.47,0,7.73-1.37,9.77-4.1c2.05-2.73,3.07-5.69,3.07-8.86c0-3.17-0.87-6.2-2.61-9.09
		c-1.74-2.89-5.11-4.34-10.11-4.34h-11.82V399.77z" />
		<path d="M309.06,444.23l-17.61-27.82h-11.02v27.82h-16.48v-87.51h25.34c10.38,0,18.42,2.64,24.15,7.91
		c5.72,5.27,8.58,12.47,8.58,21.58c0,5.39-1.08,10.44-3.24,15.16c-2.16,4.72-5.47,8.42-9.94,11.12l19.43,31.75H309.06z
		 M280.43,399.77h11.7c4.47,0,7.73-1.37,9.77-4.1c2.05-2.73,3.07-5.69,3.07-8.86c0-3.17-0.87-6.2-2.61-9.09
		c-1.74-2.89-5.11-4.34-10.11-4.34h-11.82V399.77z" />
		<path d="M415.98,356.73l-31.36,60.28v27.23h-16.48v-27.23l-30.79-60.28h20.34l19.2,40.43l18.75-40.43H415.98z" />
		<path d="M431.32,374.44c1.44-1.43,2.65-3.35,3.64-5.77c0.98-2.42,1.48-4.82,1.48-7.19c0-0.63-0.08-1.5-0.23-2.62l12.16-0.83
		c0.15,0.95,0.23,1.71,0.23,2.26c0,3.25-0.91,6.62-2.73,10.11c-1.82,3.49-3.94,5.95-6.36,7.37L431.32,374.44z" />
		<path d="M499.26,371.59c-3.64,0-6.46,0.75-8.46,2.26c-2.01,1.51-3.01,3.77-3.01,6.78c0,2.78,1.46,5.21,4.37,7.31
		c2.92,2.1,6.8,4.1,11.65,6c3.94,1.51,7.31,3.23,10.11,5.17c2.8,1.94,5.13,4.62,6.99,8.03c1.86,3.41,2.78,7.73,2.78,12.96
		c0,4.52-1.12,8.7-3.35,12.54c-2.23,3.84-5.51,6.9-9.83,9.15c-4.32,2.26-9.47,3.39-15.45,3.39c-5,0-9.96-0.77-14.88-2.32
		c-4.93-1.55-9.51-3.9-13.75-7.07l7.27-13.44c2.88,2.22,6.17,4.04,9.89,5.47c3.71,1.43,7.04,2.14,10,2.14
		c3.48,0,6.51-0.77,9.09-2.32c2.57-1.55,3.86-4.06,3.86-7.55c0-4.52-4.05-8.44-12.16-11.77c-4.77-1.98-8.75-3.88-11.93-5.71
		c-3.18-1.82-5.93-4.44-8.24-7.85c-2.31-3.41-3.47-7.69-3.47-12.84c0-7.53,2.37-13.59,7.1-18.19c4.73-4.6,11.04-7.09,18.92-7.49
		c6.21,0,11.4,0.73,15.57,2.2c4.17,1.47,8.22,3.55,12.16,6.24l-6.25,13.2C510.97,373.69,504.64,371.59,499.26,371.59z" />
		<path d="M615.96,356.73v70.86h39.31v16.65h-55.79v-87.51H615.96z" />
		<path d="M740.72,356.73v16.65h-40.56v18.67h35.91v16.65h-35.91v18.9h42.16v16.65h-58.63v-87.51H740.72z" />
		<path d="M812.07,427.11h-27.72l-6.82,17.12h-16.25l37.72-90.96h0.91l37.72,90.96h-19.09L812.07,427.11z M806.62,412.61l-8.07-21.28
		l-8.41,21.28H806.62z" />
		<path d="M906.27,444.23l-17.61-27.82h-11.02v27.82h-16.48v-87.51h25.34c10.38,0,18.43,2.64,24.15,7.91
		c5.72,5.27,8.58,12.47,8.58,21.58c0,5.39-1.08,10.44-3.24,15.16c-2.16,4.72-5.47,8.42-9.94,11.12l19.43,31.75H906.27z
		 M877.64,399.77h11.7c4.47,0,7.73-1.37,9.77-4.1c2.04-2.73,3.07-5.69,3.07-8.86c0-3.17-0.87-6.2-2.61-9.09
		c-1.74-2.89-5.11-4.34-10.11-4.34h-11.82V399.77z" />
		<path d="M1025.8,356.73v91.07h-0.45l-58.52-55.29l0.34,51.72h-16.7v-90.96h0.68l58.4,56.12l-0.34-52.67H1025.8z" />
		<path d="M1115.79,356.73v16.65h-40.56v18.67h35.91v16.65h-35.91v18.9h42.16v16.65h-58.63v-87.51H1115.79z" />
		<path d="M1190.9,444.23l-17.61-27.82h-11.02v27.82h-16.48v-87.51h25.34c10.38,0,18.43,2.64,24.15,7.91
		c5.72,5.27,8.58,12.47,8.58,21.58c0,5.39-1.08,10.44-3.24,15.16c-2.16,4.72-5.47,8.42-9.94,11.12l19.43,31.75H1190.9z
		 M1162.26,399.77h11.7c4.47,0,7.73-1.37,9.77-4.1c2.04-2.73,3.07-5.69,3.07-8.86c0-3.17-0.87-6.2-2.61-9.09
		c-1.74-2.89-5.11-4.34-10.11-4.34h-11.82V399.77z" />
		<path d="M1260.78,371.59c-3.64,0-6.46,0.75-8.46,2.26c-2.01,1.51-3.01,3.77-3.01,6.78c0,2.78,1.46,5.21,4.38,7.31
		c2.91,2.1,6.8,4.1,11.65,6c3.94,1.51,7.31,3.23,10.11,5.17c2.8,1.94,5.13,4.62,6.99,8.03c1.86,3.41,2.78,7.73,2.78,12.96
		c0,4.52-1.12,8.7-3.35,12.54c-2.24,3.84-5.51,6.9-9.83,9.15c-4.32,2.26-9.47,3.39-15.45,3.39c-5,0-9.96-0.77-14.88-2.32
		c-4.92-1.55-9.51-3.9-13.75-7.07l7.27-13.44c2.88,2.22,6.17,4.04,9.88,5.47c3.71,1.43,7.05,2.14,10,2.14
		c3.48,0,6.51-0.77,9.09-2.32c2.58-1.55,3.86-4.06,3.86-7.55c0-4.52-4.05-8.44-12.16-11.77c-4.77-1.98-8.75-3.88-11.93-5.71
		c-3.18-1.82-5.93-4.44-8.24-7.85c-2.31-3.41-3.47-7.69-3.47-12.84c0-7.53,2.37-13.59,7.1-18.19c4.73-4.6,11.04-7.09,18.92-7.49
		c6.21,0,11.4,0.73,15.57,2.2c4.16,1.47,8.22,3.55,12.16,6.24l-6.25,13.2C1272.48,373.69,1266.15,371.59,1260.78,371.59z" />
	</g>
	<polygon class="st0" points="730,304 522,304 522,48 556,14 590,48 590,236 730,236 " />
	<polygon class="st0" points="730,218 608,218 608,48 676,48 676,150 730,150 764,184 " />
</svg>