<?xml version="1.0" encoding="utf-8" ?>
<!-- Generator: Adobe Illustrator 23.0.0, SVG Export Plug-In . SVG Version: 6.00 Build 0)  -->
<svg version="1.1" id="Layer_1" xmlns="http://www.w3.org/2000/svg" xmlns:xlink="http://www.w3.org/1999/xlink" x="0px" y="0px" viewBox="0 0 788 296" style="enable-background:new 0 0 788 296;" xml:space="preserve">
	<style type="text/css">
	.st0{fill:#EE0C37;}
</style>
	<polygon class="st0" points="208,290 0,290 0,34 34,0 68,34 68,222 208,222 " />
	<polygon class="st0" points="208,204 86,204 86,34 154,34 154,136 208,136 242,170 " />
	<g>
		<path d="M273.6,135.27v55.43h32.18v13.02h-45.66v-68.44H273.6z" />
		<path d="M362.88,190.33h-22.69l-5.58,13.39h-13.3l30.87-71.14h0.74l30.87,71.14h-15.62L362.88,190.33z M358.41,178.98l-6.6-16.65
		l-6.88,16.65H358.41z" />
		<path d="M439.97,203.72l-14.42-21.76h-9.02v21.76h-13.48v-68.44h20.74c8.49,0,15.08,2.06,19.76,6.18
		c4.68,4.12,7.02,9.75,7.02,16.88c0,4.22-0.88,8.17-2.65,11.86c-1.77,3.69-4.48,6.59-8.14,8.69l15.9,24.83H439.97z M416.53,168.94
		h9.58c3.66,0,6.32-1.07,8-3.21s2.51-4.45,2.51-6.93c0-2.48-0.71-4.85-2.14-7.11c-1.43-2.26-4.18-3.39-8.28-3.39h-9.67V168.94z" />
		<path d="M513.06,203.72l-14.42-21.76h-9.02v21.76h-13.48v-68.44h20.74c8.49,0,15.08,2.06,19.76,6.18
		c4.68,4.12,7.02,9.75,7.02,16.88c0,4.22-0.88,8.17-2.65,11.86c-1.77,3.69-4.48,6.59-8.14,8.69l15.9,24.83H513.06z M489.63,168.94
		h9.58c3.66,0,6.32-1.07,8-3.21s2.51-4.45,2.51-6.93c0-2.48-0.71-4.85-2.14-7.11c-1.43-2.26-4.18-3.39-8.28-3.39h-9.67V168.94z" />
		<path d="M600.57,135.27l-25.67,47.15v21.29h-13.48v-21.29l-25.2-47.15h16.65l15.72,31.62l15.34-31.62H600.57z" />
		<path d="M613.12,149.13c1.18-1.12,2.17-2.62,2.98-4.51c0.8-1.89,1.21-3.77,1.21-5.63c0-0.5-0.06-1.18-0.19-2.05l9.95-0.65
		c0.12,0.74,0.19,1.33,0.19,1.77c0,2.54-0.74,5.18-2.23,7.9c-1.49,2.73-3.22,4.65-5.21,5.77L613.12,149.13z" />
		<path d="M668.73,146.9c-2.98,0-5.29,0.59-6.93,1.77c-1.64,1.18-2.46,2.94-2.46,5.3c0,2.17,1.19,4.08,3.58,5.72
		c2.39,1.64,5.56,3.21,9.53,4.7c3.22,1.18,5.98,2.53,8.28,4.04c2.29,1.52,4.2,3.61,5.72,6.28c1.52,2.67,2.28,6.04,2.28,10.14
		c0,3.53-0.92,6.8-2.74,9.81c-1.83,3.01-4.51,5.39-8.04,7.16c-3.53,1.77-7.75,2.65-12.65,2.65c-4.09,0-8.15-0.6-12.18-1.81
		c-4.03-1.21-7.78-3.05-11.25-5.53l5.95-10.51c2.36,1.74,5.05,3.16,8.09,4.28c3.04,1.12,5.77,1.67,8.18,1.67
		c2.85,0,5.33-0.61,7.44-1.81c2.11-1.21,3.16-3.18,3.16-5.9c0-3.53-3.32-6.6-9.95-9.21c-3.91-1.55-7.16-3.04-9.76-4.46
		c-2.6-1.42-4.85-3.47-6.74-6.14c-1.89-2.66-2.84-6.01-2.84-10.04c0-5.89,1.94-10.63,5.81-14.23c3.87-3.59,9.03-5.55,15.48-5.86
		c5.08,0,9.33,0.57,12.74,1.72c3.41,1.15,6.73,2.78,9.95,4.88l-5.11,10.32C678.31,148.54,673.13,146.9,668.73,146.9z" />
	</g>
	<g>
		<path d="M239.6,221.28v55.42h32.18v13.02h-45.66v-68.44H239.6z" />
		<path d="M341.71,221.28v13.02h-33.2v14.6h29.39v13.02h-29.39v14.79h34.5v13.02h-47.99v-68.44H341.71z" />
		<path d="M400.11,276.33h-22.69l-5.58,13.39h-13.3l30.87-71.14h0.74l30.87,71.14h-15.62L400.11,276.33z M395.65,264.98l-6.6-16.65
		l-6.88,16.65H395.65z" />
		<path d="M477.2,289.72l-14.42-21.76h-9.02v21.76h-13.48v-68.44h20.74c8.49,0,15.08,2.06,19.76,6.18c4.68,4.12,7.02,9.75,7.02,16.88
		c0,4.22-0.88,8.17-2.65,11.86c-1.77,3.69-4.48,6.59-8.14,8.69l15.9,24.83H477.2z M453.77,254.94h9.58c3.66,0,6.32-1.07,8-3.21
		s2.51-4.45,2.51-6.93c0-2.48-0.71-4.85-2.14-7.11c-1.43-2.26-4.18-3.39-8.28-3.39h-9.67V254.94z" />
		<path d="M575.03,221.28v71.23h-0.37l-47.89-43.24l0.28,40.45h-13.67v-71.14h0.56l47.8,43.89l-0.28-41.2H575.03z" />
		<path d="M648.68,221.28v13.02h-33.2v14.6h29.39v13.02h-29.39v14.79h34.5v13.02H602v-68.44H648.68z" />
		<path d="M710.15,289.72l-14.42-21.76h-9.02v21.76h-13.48v-68.44h20.74c8.49,0,15.08,2.06,19.76,6.18
		c4.68,4.12,7.02,9.75,7.02,16.88c0,4.22-0.88,8.17-2.65,11.86c-1.77,3.69-4.48,6.59-8.14,8.69l15.9,24.83H710.15z M686.72,254.94
		h9.58c3.66,0,6.32-1.07,8-3.21s2.51-4.45,2.51-6.93c0-2.48-0.71-4.85-2.14-7.11c-1.43-2.26-4.18-3.39-8.28-3.39h-9.67V254.94z" />
		<path d="M767.34,232.9c-2.98,0-5.29,0.59-6.93,1.77c-1.64,1.18-2.46,2.95-2.46,5.3c0,2.17,1.19,4.08,3.58,5.72
		c2.39,1.64,5.56,3.21,9.53,4.7c3.22,1.18,5.98,2.53,8.28,4.04c2.29,1.52,4.2,3.61,5.72,6.28c1.52,2.67,2.28,6.04,2.28,10.14
		c0,3.53-0.92,6.8-2.74,9.81c-1.83,3.01-4.51,5.39-8.04,7.16c-3.53,1.77-7.75,2.65-12.65,2.65c-4.09,0-8.15-0.6-12.18-1.81
		c-4.03-1.21-7.78-3.05-11.25-5.53l5.95-10.51c2.36,1.74,5.05,3.16,8.09,4.28c3.04,1.12,5.77,1.67,8.18,1.67
		c2.85,0,5.33-0.61,7.44-1.81c2.11-1.21,3.16-3.18,3.16-5.9c0-3.53-3.32-6.6-9.95-9.21c-3.91-1.55-7.16-3.04-9.76-4.46
		c-2.6-1.42-4.85-3.47-6.74-6.14c-1.89-2.66-2.84-6.01-2.84-10.04c0-5.89,1.94-10.63,5.81-14.23c3.87-3.59,9.03-5.55,15.48-5.86
		c5.08,0,9.33,0.57,12.74,1.72c3.41,1.15,6.73,2.78,9.95,4.88l-5.11,10.32C776.92,234.54,771.74,232.9,767.34,232.9z" />
	</g>
</svg>